HIERARCHY
ROOT Hips
{
  OFFSET -1.56614 0.00 -1.85809
  CHANNELS 6 Xposition Yposition Zposition Zrotation Xrotation Yrotation
  JOINT LHipJoint
  {
    OFFSET 0 0 0
    CHANNELS 3 Zrotation Xrotation Yrotation
    JOINT LeftUpLeg
    {
      OFFSET 1.8 -1.4 0.085
      CHANNELS 3 Zrotation Xrotation Yrotation
      JOINT LeftLeg
      {
        OFFSET 2.215 -6 0
        CHANNELS 3 Zrotation Xrotation Yrotation
        JOINT LeftFoot
        {
          OFFSET 2.5 -6.9 0
          CHANNELS 3 Zrotation Xrotation Yrotation
          JOINT LeftToeBase
          {
            OFFSET 0.2 -0.5 1.95
            CHANNELS 3 Zrotation Xrotation Yrotation
            End Site
            {
              OFFSET 0 0 1
            }
          }
        }
      }
    }
  }
  JOINT RHipJoint
  {
    OFFSET 0 0 0
    CHANNELS 3 Zrotation Xrotation Yrotation
    JOINT RightUpLeg
    {
      OFFSET -1.8 -1.4 0.085
      CHANNELS 3 Zrotation Xrotation Yrotation
      JOINT RightLeg
      {
        OFFSET -2.215 -6 0
        CHANNELS 3 Zrotation Xrotation Yrotation
        JOINT RightFoot
        {
          OFFSET -2.5 -6.9 0
          CHANNELS 3 Zrotation Xrotation Yrotation
          JOINT RightToeBase
          {
            OFFSET -0.2 -0.5 1.95
            CHANNELS 3 Zrotation Xrotation Yrotation
            End Site
            {
              OFFSET 0 0 1
            }
          }
        }
      }
    }
  }
  JOINT LowerBack
  {
    OFFSET 0 0 0
    CHANNELS 3 Zrotation Xrotation Yrotation
    JOINT Spine
    {
      OFFSET -0.087 1.94 -0.2889
      CHANNELS 3 Zrotation Xrotation Yrotation
      JOINT Spine1
      {
        OFFSET 0 1.95 0.06
        CHANNELS 3 Zrotation Xrotation Yrotation
        JOINT Neck
        {
          OFFSET 0 0 0
          CHANNELS 3 Zrotation Xrotation Yrotation
          JOINT Neck1
          {
            OFFSET 0 1.6 0.34
            CHANNELS 3 Zrotation Xrotation Yrotation
            JOINT Head
            {
              OFFSET 0 1.667 -0.24
              CHANNELS 3 Zrotation Xrotation Yrotation
              End Site
              {
                OFFSET 0 1.686 -0.12
              }
            }
          }
        }
        JOINT LeftShoulder
        {
          OFFSET 0 0 0
          CHANNELS 3 Zrotation Xrotation Yrotation
          JOINT LeftArm
          {
            OFFSET 2.7 1.55 -0.73
            CHANNELS 3 Zrotation Xrotation Yrotation
            JOINT LeftForeArm
            {
              OFFSET 5.45 0 0
              CHANNELS 3 Zrotation Xrotation Yrotation
              JOINT LeftHand
              {
                OFFSET 3.45 0 0
                CHANNELS 3 Zrotation Xrotation Yrotation
                JOINT LeftFingerBase
                {
                  OFFSET 0 0 0
                  CHANNELS 3 Zrotation Xrotation Yrotation
                  JOINT LeftHandIndex1
                  {
                    OFFSET 0.75 0 0
                    CHANNELS 3 Zrotation Xrotation Yrotation
                    End Site
                    {
                      OFFSET 0.6 0 0
                    }
                  }
                }
                JOINT LThumb
                {
                  OFFSET 0 0 0
                  CHANNELS 3 Zrotation Xrotation Yrotation
                  End Site
                  {
                    OFFSET 0.59 0 0.59
                  }
                }
              }
            }
          }
        }
        JOINT RightShoulder
        {
          OFFSET 0 0 0
          CHANNELS 3 Zrotation Xrotation Yrotation
          JOINT RightArm
          {
            OFFSET -2.7 1.55 -0.73
            CHANNELS 3 Zrotation Xrotation Yrotation
            JOINT RightForeArm
            {
              OFFSET -5.45 0 0
              CHANNELS 3 Zrotation Xrotation Yrotation
              JOINT RightHand
              {
                OFFSET -3.45 0 0
                CHANNELS 3 Zrotation Xrotation Yrotation
                JOINT RightFingerBase
                {
                  OFFSET 0 0 0
                  CHANNELS 3 Zrotation Xrotation Yrotation
                  JOINT RightHandIndex1
                  {
                    OFFSET -0.75 0 0
                    CHANNELS 3 Zrotation Xrotation Yrotation
                    End Site
                    {
                      OFFSET -0.6 0 0
                    }
                  }
                }
                JOINT RThumb
                {
                  OFFSET 0 0 0
                  CHANNELS 3 Zrotation Xrotation Yrotation
                  End Site
                  {
                    OFFSET -0.59 0 0.59
                  }
                }
              }
            }
          }
        }
      }
    }
  }
}
MOTION
Frames:	10
Frame Time:	0.00833333
16.3195 17.8582 -28.5233 7.23219 0.262736 -93.8226 7.26743e-032 -2.61837e-015 1.59028e-015 -1.16323 -28.447 10.0647 -18.6377 28.6665 4.86385 16.3964 -7.51706 46.3386 -3.18055e-015 4.77083e-015 -2.22639e-014 7.26743e-032 -2.61837e-015 1.59028e-015 21.9307 -11.639 7.91922 -36.5556 31.0084 108.256 -65.1749 -12.3418 -156.75 1.59028e-015 2.22639e-014 9.85972e-014 7.26743e-032 -2.61837e-015 1.59028e-015 6.40844 11.233 0.205633 19.0287 2.34557 -3.30674 23.2372 -31.7981 1.6968 22.2525 3.99692 -4.63184 -38.63 4.95307 15.7462 0.206918 0.00444424 3.46455 -86.1788 1.42523 -10.0088 2.65898 58.8278 -11.5018 -13.3112 7.68922 -27.9773 3.33473e-008 -2.43609e-007 1.67066e-006 8.74147e-007 -7.19699e-008 -2.53835e-008 8.82781e-032 3.18055e-015 -1.59028e-015 30.1883 4.14785 7.87744 15.3037 41.831 3.49048 75.7455 38.0151 53.3991 -103.829 -1.26603 -0.6116 4.88131e-007 -2.62998e-007 5.03081e-007 -1.51879e-006 2.38566e-007 6.76415e-007 -1.59028e-015 -9.93923e-016 1.27968e-015 
16.4061 17.8601 -28.4562 6.87353 -0.527632 -92.2051 -3.7501e-033 5.40446e-016 3.97569e-016 -1.17307 -28.6795 10.2549 -18.7519 28.8504 4.32944 16.557 -7.34085 45.5854 -3.97569e-015 3.97569e-015 -2.54444e-014 -3.7501e-033 5.40446e-016 3.97569e-016 21.6086 -11.0929 7.54579 -33.043 33.2813 98.6601 -63.8871 -17.8519 -152.077 -3.18055e-015 1.43125e-014 8.90555e-014 -3.7501e-033 5.40446e-016 3.97569e-016 4.92469 12.1851 0.429879 21.2375 1.00841 -3.32219 22.5929 -30.9538 1.46321 21.7941 4.89452 -4.68917 -37.4067 4.65547 15.4734 1.52135 -0.00275147 3.63578 -87.9022 1.26983 -9.03297 2.58871 58.3197 -11.2766 -14.0625 8.0812 -28.635 3.33473e-008 -2.43609e-007 1.67066e-006 8.74147e-007 -7.19698e-008 -2.53835e-008 -7.95139e-016 -3.18055e-015 -3.18055e-015 27.329 3.62124 7.12117 15.6945 45.6646 4.13198 76.1018 34.472 51.5063 -99.753 -3.07556 1.64855 4.88131e-007 -2.62998e-007 5.03081e-007 -1.51879e-006 2.38566e-007 6.76415e-007 6.75879e-032 7.95139e-016 -4.87022e-015 
16.5084 17.8594 -28.3788 6.38577 -0.356956 -90.4846 -4.96962e-017 -1.53553e-015 9.93923e-017 -1.00654 -28.9098 10.6272 -19.0328 29.1917 3.85335 16.7379 -7.0281 44.6629 -5.1684e-015 3.18055e-015 -2.22639e-014 -4.96962e-017 -1.53553e-015 9.93923e-017 21.3149 -10.37 7.11497 -28.2691 33.0225 86.5255 -60.9876 -23.9956 -145.44 -3.2045e-029 1.74931e-014 1.04958e-013 -4.96962e-017 -1.53553e-015 9.93923e-017 2.87596 13.3616 0.706757 24.2514 -0.669302 -3.41658 21.7692 -29.7302 1.16767 21.2153 6.18556 -4.76514 -35.8559 4.10845 15.2003 3.20189 -0.0112842 3.84948 -90.1464 1.13526 -7.78644 2.41132 57.6044 -11.035 -14.8252 8.46601 -29.2357 3.33473e-008 -2.43609e-007 1.67066e-006 8.74147e-007 -7.19699e-008 -2.53835e-008 1.59028e-015 -9.54166e-015 -4.77083e-015 23.8235 3.02912 6.30721 15.9306 49.2747 5.07632 76.4497 30.39 48.8348 -94.7683 -4.47775 3.71778 4.88131e-007 -2.62998e-007 5.03081e-007 -1.51879e-006 2.38566e-007 6.76415e-007 -1.19271e-015 -1.59028e-015 1.59028e-015 
16.6113 17.8573 -28.3038 5.89419 0.847693 -89.4302 -1.98785e-016 3.85145e-016 -0 -0.840353 -29.1649 10.9711 -19.311 29.55 3.45473 16.8693 -6.68493 43.657 -3.18055e-015 4.77083e-015 -1.90833e-014 -1.98785e-016 3.85145e-016 -0 21.0768 -9.64632 6.70817 -24.4336 29.935 75.9056 -56.6943 -29.1135 -138.058 6.36111e-015 1.27222e-014 9.54166e-014 -1.98785e-016 3.85145e-016 -0 0.822638 14.4015 0.939085 27.1857 -2.10397 -3.60776 21.0711 -28.5273 0.914156 20.7362 7.44485 -4.83889 -34.5057 3.43656 15.0252 4.82925 -0.0184244 4.03986 -92.3643 0.962731 -6.53512 2.38854 56.9673 -11.0378 -15.353 8.68682 -29.4507 3.33473e-008 -2.43609e-007 1.67066e-006 8.74147e-007 -7.19698e-008 -2.53835e-008 7.95139e-016 6.36111e-015 -0 20.4896 2.49204 5.59248 16.1643 48.0626 6.46385 76.1671 24.7079 48.6628 -90.0628 -5.6818 5.66959 4.88131e-007 -2.62998e-007 5.03081e-007 -1.51879e-006 2.38566e-007 6.76415e-007 -7.95139e-016 0 -1.59028e-015 
16.7002 17.8548 -28.2434 5.5455 2.20981 -88.9227 -3.97569e-016 4.84538e-016 -0 -0.834276 -29.4686 11.0988 -19.438 29.7964 3.15729 16.8755 -6.42592 42.6395 -4.77083e-015 5.56597e-015 -2.8625e-014 -3.97569e-016 4.84538e-016 -0 20.9184 -9.08155 6.40004 -22.3079 26.7484 68.7299 -52.5173 -32.5687 -131.873 3.18055e-015 1.11319e-014 9.54166e-014 -3.97569e-016 4.84538e-016 -0 -0.677867 14.9605 1.03115 29.1882 -2.72262 -3.91016 20.7811 -27.7337 0.796263 20.5689 8.26034 -4.88632 -33.8647 2.75123 15.0423 5.99693 -0.0214833 4.14285 -94.0239 0.695277 -5.53561 2.75907 56.6916 -11.5277 -15.4003 8.58493 -28.938 3.33473e-008 -2.43609e-007 1.67066e-006 8.74147e-007 -7.19698e-008 -2.53835e-008 -3.18055e-015 -3.18055e-015 -3.18055e-015 18.1257 2.12771 5.12502 17.3512 37.2778 8.02415 75.9251 17.1439 54.0211 -86.7514 -6.88557 7.57731 4.88131e-007 -2.62998e-007 5.03081e-007 -1.51879e-006 2.38566e-007 6.76415e-007 -3.18055e-015 7.95139e-016 2.18663e-015 
16.7806 17.8503 -28.1962 5.18296 3.09387 -88.0964 -0 -4.96962e-017 -0 -0.751548 -29.7527 11.2881 -19.58 30.0451 3.00246 16.7693 -6.27945 41.4855 -2.38542e-015 3.18055e-015 -2.54444e-014 -0 -4.96962e-017 -0 20.9335 -8.48339 6.16131 -20.6994 25.0346 62.7801 -48.905 -35.3261 -126.782 -1.59028e-015 1.59028e-014 9.85972e-014 -0 -4.96962e-017 -0 -1.60439 15.1299 1.01055 30.2795 -2.42415 -4.32603 20.9311 -27.3383 0.830235 20.746 8.6403 -4.89571 -33.9631 1.88022 15.2643 6.71588 -0.0197991 4.15565 -95.1441 0.330732 -4.76214 3.57396 56.8728 -12.6158 -14.7986 8.01905 -27.3764 3.33473e-008 -2.43609e-007 1.67066e-006 8.74147e-007 -7.19699e-008 -2.53835e-008 0 0 -1.59028e-015 16.6325 1.92436 4.85226 21.5887 12.2523 10.382 78.2513 7.57893 67.1675 -84.8196 -8.01388 9.44511 4.88131e-007 -2.62998e-007 5.03081e-007 -1.51879e-006 2.38566e-007 6.76415e-007 -3.18055e-015 -3.18055e-015 -6.36111e-015 
16.8554 17.8446 -28.1569 4.86595 3.34042 -86.7079 -3.97569e-016 9.69075e-016 7.95139e-016 -0.719476 -30.0664 11.3915 -19.674 30.2648 2.94316 16.5752 -6.16205 40.2655 -7.95139e-016 5.56597e-015 -2.8625e-014 -3.97569e-016 9.69075e-016 7.95139e-016 21.0189 -7.93861 5.97619 -19.2345 24.0827 57.0755 -45.6546 -37.6531 -122.321 -3.18055e-015 1.90833e-014 1.01778e-013 -3.97569e-016 9.69075e-016 7.95139e-016 -2.2659 15.0135 0.901635 30.9204 -1.60784 -4.8432 21.3276 -27.1428 0.944421 21.1212 8.79902 -4.88792 -34.484 0.921653 15.6312 7.1947 -0.0154097 4.11517 -95.9905 -0.097948 -4.09995 4.6909 57.2553 -14.0968 -13.768 7.15694 -25.2488 3.33473e-008 -2.43609e-007 1.67066e-006 8.74147e-007 -7.19699e-008 -2.53835e-008 -7.95139e-016 0 -0 15.684 1.83125 4.74022 30.8452 -19.4765 15.7006 84.5076 0.788188 85.267 -83.7133 -9.02375 11.2305 4.88131e-007 -2.62998e-007 5.03081e-007 -1.51879e-006 2.38566e-007 6.76415e-007 -1.59028e-015 3.18055e-015 -0 
16.9215 17.8401 -28.1226 4.8149 3.03018 -85.038 6.89673e-034 4.96962e-017 -7.95139e-016 -1.0748 -30.5149 11.0229 -19.5133 30.3211 2.9049 16.2981 -5.98651 39.1535 -3.97569e-015 3.97569e-015 -2.54444e-014 6.89673e-034 4.96962e-017 -7.95139e-016 20.9979 -7.70093 5.85891 -18.091 23.3452 52.1114 -42.9416 -39.4396 -118.715 -3.18055e-015 2.06736e-014 9.85972e-014 6.89673e-034 4.96962e-017 -7.95139e-016 -2.91133 14.6004 0.694751 31.4424 -0.672188 -5.44911 21.788 -27.0094 1.06588 21.5519 8.88927 -4.88869 -35.1578 0.117838 16.0837 7.57917 -0.0104902 4.05183 -96.7431 -0.56369 -3.48813 5.93343 57.5526 -15.6894 -12.6551 6.27704 -23.226 3.33473e-008 -2.43609e-007 1.67066e-006 8.74147e-007 -7.19699e-008 -2.53835e-008 2.38542e-015 3.18055e-015 3.18055e-015 15.1392 1.82272 4.81411 48.333 -46.7675 28.4391 91.4539 -0.285106 102.801 -83.0388 -9.95473 12.8986 4.88131e-007 -2.62998e-007 5.03081e-007 -1.51879e-006 2.38566e-007 6.76415e-007 3.18055e-015 -3.18055e-015 -0 
16.9758 17.8387 -28.0907 5.23728 2.74271 -83.3572 7.95139e-016 -4.96962e-016 -7.95139e-016 -2.18858 -31.208 9.76928 -18.8844 30.0726 2.81772 15.9422 -5.6652 38.3258 -3.18055e-015 3.18055e-015 -2.54444e-014 7.95139e-016 -4.96962e-016 -7.95139e-016 20.6937 -8.03974 5.83061 -17.5687 22.4432 48.6668 -41.0237 -40.596 -116.334 -6.36111e-015 1.59028e-014 9.22361e-014 7.95139e-016 -4.96962e-016 -7.95139e-016 -3.7952 13.8602 0.374875 32.1571 0.00185336 -6.13912 22.137 -26.8057 1.12317 21.9022 9.05808 -4.92444 -35.7488 -0.288905 16.5638 8.00663 -0.0071238 3.99395 -97.5756 -1.04496 -2.86607 7.07695 57.504 -17.0743 -11.8767 5.69849 -21.9427 3.33473e-008 -2.43609e-007 1.67066e-006 8.74147e-007 -7.19698e-008 -2.53835e-008 7.95139e-016 0 -0 14.8743 1.8778 5.10973 70.8452 -59.9895 47.6867 95.2022 1.46752 113.636 -82.5092 -10.872 14.4432 4.88131e-007 -2.62998e-007 5.03081e-007 -1.51879e-006 2.38566e-007 6.76415e-007 -6.36111e-015 0 -1.98785e-016 
17.0178 17.8399 -28.0628 6.39291 2.63765 -81.542 3.97569e-016 -2.98177e-016 -3.18055e-015 -4.48576 -32.311 7.17684 -17.5985 29.3587 2.72096 15.4537 -5.1585 37.8727 -3.18055e-015 3.97569e-015 -3.18055e-014 3.97569e-016 -2.98177e-016 -3.18055e-015 20.038 -9.30726 6.00857 -17.4588 22.4281 46.9027 -40.5827 -41.3774 -115.947 4.77083e-015 2.22639e-014 9.22361e-014 3.97569e-016 -2.98177e-016 -3.18055e-015 -5.07511 12.5 -0.155327 33.1291 0.490149 -7.04504 22.4079 -26.5485 1.10609 22.2073 9.28532 -5.01404 -36.4997 -0.14734 17.121 8.41269 -0.00484744 3.92356 -98.4807 -1.61386 -2.21264 8.23954 57.1345 -18.3348 -11.4857 5.44839 -21.3925 3.33473e-008 -2.43609e-007 1.67066e-006 8.74147e-007 -7.19699e-008 -2.53835e-008 -8.82781e-032 -6.36111e-015 -7.95139e-016 15.1117 2.05922 5.79978 84.3365 -63.3971 60.5116 96.9545 2.3155 119.921 -83.6195 -12.1625 16.2879 4.88131e-007 -2.62998e-007 5.03081e-007 -1.51879e-006 2.38566e-007 6.76415e-007 3.18055e-015 3.18055e-015 -0 
